<svg width="86" height="98" viewBox="0 0 86 98" fill="none" xmlns="http://www.w3.org/2000/svg">
<path d="M41.957 0.323842C41.3169 0.624203 40.9168 1.17486 40.8168 1.88571L40.7568 2.38631L22.2537 13.1592L3.76055 23.9321L3.4205 23.772C2.76038 23.4516 1.6702 23.6318 1.1101 24.1424C0.269962 24.9233 0.319971 26.5152 1.22012 27.2762L1.57018 27.5665L1.64019 48.9622C1.6802 62.0479 1.6602 70.3678 1.61019 70.3678C1.41016 70.3678 0.860062 70.9285 0.690033 71.319C0.349976 72.0599 0.500001 73.0811 1.03009 73.6518C1.15011 73.7819 1.42016 73.9822 1.64019 74.0923C2.01026 74.2825 2.33031 74.2925 3.51051 74.1524C3.70054 74.1323 8.57137 76.8656 22.2737 84.685L40.7868 95.2377L40.8368 95.6281C40.9869 96.7294 42.147 97.4002 43.4573 97.16C43.9774 97.0598 44.6675 96.369 44.8175 95.7683L44.9475 95.2977L63.5407 84.675L82.1438 74.0522L82.5139 74.1624C82.984 74.3025 83.7141 74.3025 84.0842 74.1624C84.4642 74.0222 85.0043 73.4916 85.1743 73.1011C85.3644 72.6606 85.3544 71.7295 85.1543 71.309C85.0643 71.1187 84.8143 70.8084 84.6042 70.6281L84.2142 70.2977V48.9622V27.6266L84.4942 27.4764C85.6444 26.8757 85.8645 25.0335 84.9043 24.1424C84.3242 23.6118 83.234 23.4516 82.5339 23.802L82.1638 23.9822L63.5607 13.1893L44.9575 2.40634L44.8875 1.94579C44.8075 1.35508 44.5575 0.934576 44.0774 0.544108C43.7373 0.273784 43.6073 0.233731 42.9772 0.213707C42.5171 0.193683 42.147 0.233734 41.957 0.323842ZM42.3371 16.3931C42.3771 23.0811 42.4071 32.6826 42.4071 37.7387V46.9297L42.057 47.0999L41.707 47.2601L23.1838 36.5473C9.28149 28.5177 4.6507 25.7944 4.6507 25.6542C4.6507 25.5241 9.30149 22.7708 23.1538 14.7011L41.647 3.93817L41.957 4.08835L42.2771 4.23853L42.3371 16.3931ZM62.7505 14.7812C72.9723 20.7083 81.3337 25.6042 81.3337 25.6642C81.3237 25.7143 72.9623 30.5701 62.7505 36.4572L44.1774 47.14L43.8073 47.0298L43.4273 46.9197L43.3673 41.0927C43.3373 37.8989 43.2872 28.3074 43.2672 19.7772L43.2172 4.28859L43.5373 4.14843C43.7173 4.06833 43.9274 3.99825 44.0074 3.99825C44.0874 3.99825 52.5188 8.84406 62.7505 14.7812ZM82.5139 48.8721V70.2277L82.0938 70.528L81.6637 70.8284L63.4106 60.2857C53.3689 54.4888 45.1276 49.7431 45.0775 49.7231C45.0375 49.7031 45.0375 49.4528 45.0775 49.1624L45.1576 48.6418L63.6607 37.989C78.2532 29.5889 82.2038 27.3563 82.3439 27.4263C82.5039 27.5164 82.5139 28.6378 82.5139 48.8721ZM22.4037 38.1592C39.6266 48.1212 40.8568 48.852 40.8868 49.1123C40.9068 49.3827 40.4468 49.663 22.8438 59.9053C12.9021 65.6822 4.6307 70.498 4.46067 70.5981C4.14062 70.7783 4.13062 70.7783 3.77055 70.548L3.41049 70.3178L3.38049 48.9922C3.35048 30.1396 3.37049 27.6466 3.50051 27.5365C3.58052 27.4664 3.72055 27.4263 3.80056 27.4464C3.88057 27.4764 12.252 32.2922 22.4037 38.1592ZM41.667 50.514L42.007 50.7944V72.0198V93.2553L41.737 93.4155L41.4569 93.5656L23.0538 83.0631L4.6507 72.5605L4.6207 72.0899L4.6007 71.6193L22.9238 60.9365C33.0055 55.0695 41.2669 50.2637 41.2869 50.2537C41.3069 50.2437 41.4769 50.3638 41.667 50.514ZM63.3206 61.347L81.2637 71.6994L81.2337 72.1099L81.1937 72.5304L62.7405 83.0731C45.4376 92.9649 44.2774 93.6157 44.0474 93.4855L43.8073 93.3654V72.1299V50.8945L44.1374 50.6842L44.4574 50.474L44.9175 50.7343C45.1676 50.8745 53.449 55.6502 63.3206 61.347Z" fill="#EBECEA"/>
</svg>
